# xmcd
#
# Track frame offsets:
#	150
#	9249
#	19852
#	22485
#	31852
#	41989
#	44541
#	50593
#	60235
#	70303
#	82305
#	94142
#	105929
#	117951
#	129982
#	141794
#	154575
#	167129
#	179439
#	193563
#	206000
#	215076
#	224764
#	237132
#	243693
#	252610
#	263369
#	274109
#	284838
#	297220
#	308924
#	321402
#	332913
#	345642
#
# Disc length: 4774 seconds
#
# Revision: 0
# Processed by: cddbd v1.5.2PL0 Copyright (c) Steve Scherf et al.
# Submitted via: audiograbber 1.83.01
#
DISCID=1712a422
DTITLE=Jerry Lee Lewis - Jerry Lee Lewis At Sun Records [CD 5)
DYEAR=2015
DGENRE=Rock and Roll
TTITLE0=Jambalaya [master] [mono]
TTITLE1=Milkshake Mademoiselle (1) [mono]
TTITLE2=Milkshake Mademoiselle (2) [2 false starts] [mono]
TTITLE3=Milkshake Mademoiselle (3) [mono]
TTITLE4=Milkshake Mademoiselle (4) [chat and take] [mono]
TTITLE5=Milkshake Mademoiselle (5) [mono]
TTITLE6=Milkshake Mademoiselle (6) [fragment] [mono]
TTITLE7=Milkshake Mademoiselle (7) [mono]
TTITLE8=Milkshake Mademoiselle (8) [mono]
TTITLE9=Breathless (1) [mono]
TTITLE10=Breathless (2) [mono]
TTITLE11=Breathless (3) [mono]
TTITLE12=Breathless (4) [mono]
TTITLE13=Breathless (5) [mono]
TTITLE14=Breathless (6) [mono]
TTITLE15=Breathless (7) [mono]
TTITLE16=Breathless (8) [mono]
TTITLE17=Breathless (9) [master] [mono]
TTITLE18=Cold Cold Heart (1) [mono]
TTITLE19=Someday [mono]
TTITLE20=Don't Be Cruel [master] [mono]
TTITLE21=Pink Pedal Pushers [mono]
TTITLE22=Good Rockin' Tonight (1) [mono]
TTITLE23=Hound Dog (1) [mono]
TTITLE24=Jailhouse Rock [mono]
TTITLE25=High School Confidential (1.1) [mono]
TTITLE26=High School Confidential (1.2) [mono]
TTITLE27=High School Confidential (1.3) [mono]
TTITLE28=High School Confidential (1.4) [false start and take] [mono]
TTITLE29=High School Confidential (1.5) [mono]
TTITLE30=High School Confidential (1.6) [mono]
TTITLE31=High School Confidential (1.7) [mono]
TTITLE32=High School Confidential (1.8) [false start and take] [mono]
TTITLE33=High School Confidential (1.9) [mono]
EXTD=
EXTT0=
EXTT1=
EXTT2=
EXTT3=
EXTT4=
EXTT5=
EXTT6=
EXTT7=
EXTT8=
EXTT9=
EXTT10=
EXTT11=
EXTT12=
EXTT13=
EXTT14=
EXTT15=
EXTT16=
EXTT17=
EXTT18=
EXTT19=
EXTT20=
EXTT21=
EXTT22=
EXTT23=
EXTT24=
EXTT25=
EXTT26=
EXTT27=
EXTT28=
EXTT29=
EXTT30=
EXTT31=
EXTT32=
EXTT33=
PLAYORDER=
